# xmcd CD database file
#
# Track frame offsets:
#	150
#	15882
#	34827
#	48550
#	60770
#	74620
#	95435
#	108577
#	131855
#	144412
#	159995
#	171327
#	189950
#	203517
#	219077
#
# Disc length: 3161 seconds
#
# Revision: 0
# Processed by: cddbd v1.4b42PL1 Copyright (c) Steve Scherf et al.
# Submitted via: CDex 1.40Beta6
#
DISCID=c60c570f
DTITLE=Coletânea - Sapore D'amore - Vol. 2
DYEAR=1900
DGENRE=Italiana
TTITLE0=Ó Mio Signore - Edoardo Vianello
TTITLE1=Era Giá Tutto Previsto - Riccardo Cocciante
TTITLE2=Piange Con Me - The Rokes
TTITLE3=Mi Sono Innamorato Di Te - Luigi Tenco
TTITLE4=C' Era Un Ragazzo Che Come Me Amava I Beatles E I Rolling Stones - G
TTITLE4=ianni Morandi
TTITLE5=Tanta Voglia Di Lei - Mafalda Minnozzi
TTITLE6=Era D' Estate - Sergio Endrigo
TTITLE7=Sabato Pomeriggio - Claudio Baglioni
TTITLE8=Datemi Un Martello - Rita Pavone
TTITLE9=Sapore Di Sale - Gino Paoli
TTITLE10=Um Grande Amore, Niente Píu - Nicola Di Bari
TTITLE11=Legata A Un Granello Di Sabbia - Nico Fidenco
TTITLE12=Una Casa In Cima Al Mondo - Mina
TTITLE13=Tutta Mia La Cittá - Equipe 84
TTITLE14=Dio Come Ti Amo - Al Di La - Luciano Bruno
EXTD=
EXTT0=
EXTT1=
EXTT2=
EXTT3=
EXTT4=
EXTT5=
EXTT6=
EXTT7=
EXTT8=
EXTT9=
EXTT10=
EXTT11=
EXTT12=
EXTT13=
EXTT14=
PLAYORDER=
